<svg width="290" height="115" viewBox="0 0 290 115" fill="none" xmlns="http://www.w3.org/2000/svg">
<g clip-path="url(#clip0_109_3)">
<path d="M145 111.089C183.835 111.089 219.081 105.241 244.692 95.7204C257.489 90.9629 267.985 85.25 275.318 78.805C282.648 72.363 287 65.0148 287 57.0446C287 49.0744 282.648 41.7263 275.318 35.2843C267.985 28.8392 257.489 23.1263 244.692 18.3689C219.081 8.84824 183.835 3 145 3C106.165 3 70.9186 8.84824 45.3082 18.3689C32.5105 23.1263 22.0145 28.8392 14.6816 35.2843C7.35203 41.7263 3 49.0744 3 57.0446C3 65.0148 7.35203 72.363 14.6816 78.805C22.0145 85.25 32.5105 90.9629 45.3082 95.7204C70.9186 105.241 106.165 111.089 145 111.089Z" fill="#175676" stroke="#FF9F1C" stroke-width="4"/>
<mask id="path-2-outside-1_109_3" maskUnits="userSpaceOnUse" x="46.5324" y="13.0435" width="195.97" height="83.2183" fill="black">
<rect fill="white" x="46.5324" y="13.0435" width="195.97" height="83.2183"/>
<path d="M57.6591 87.6205C57.1549 87.7095 56.7662 87.605 56.493 87.3071L51.3016 82.1157C51.0037 81.8425 50.8992 81.4538 50.9881 80.9496L55.5446 55.1082C55.6298 54.625 55.8825 54.1733 56.3026 53.7532L63.7168 46.3391C64.1122 45.9437 64.562 45.7015 65.0662 45.6126L77.7663 43.3732C78.2495 43.288 78.6401 43.382 78.9379 43.6552L84.1294 48.8466C84.4236 49.1408 84.528 49.5295 84.4428 50.0127L79.8863 75.854C79.7974 76.3583 79.5447 76.8099 79.1283 77.2091L71.7142 84.6232C71.2941 85.0433 70.8424 85.296 70.3592 85.3812L57.6591 87.6205ZM60.0716 92.2943C59.5463 92.387 59.33 92.1706 59.4226 91.6454L60.2117 87.1705L68.2477 85.7535L68.9231 89.5428C68.9726 89.8394 68.87 90.1323 68.6155 90.4214C68.3819 90.7069 68.1076 90.8774 67.7925 90.9329L60.0716 92.2943ZM63.271 78.4784L67.683 77.7005C68.5654 77.5449 69.1103 76.8788 69.3177 75.7023L73.1352 54.0523C73.3464 52.8548 73.0108 52.3338 72.1284 52.4894L67.7164 53.2673C66.8551 53.4192 66.3188 54.0939 66.1076 55.2915L62.2902 76.9415C62.0827 78.118 62.4097 78.6303 63.271 78.4784ZM94.097 81.1956C93.5927 81.2845 93.2041 81.18 92.9309 80.8821L87.7395 75.6907C87.4416 75.4175 87.3371 75.0288 87.426 74.5246L91.9714 48.7463C92.064 48.221 92.3729 47.9121 92.8982 47.8195L101.312 46.3358C101.838 46.2432 102.054 46.4595 101.961 46.9848L97.6382 71.5025C97.464 72.49 97.8602 72.8985 98.8266 72.7281L103.144 71.9668L107.728 45.9679C107.821 45.4427 108.13 45.1337 108.655 45.0411L117.069 43.5575C117.595 43.4649 117.811 43.6812 117.718 44.2064L111.884 77.2959C111.791 77.8212 111.482 78.1301 110.957 78.2227L94.097 81.1956ZM122.208 61.8268C121.682 61.9195 121.466 61.7031 121.559 61.1779L122.531 55.663C122.572 55.4319 122.654 55.2546 122.778 55.131C122.905 54.9864 123.064 54.8363 123.254 54.6806L130.668 49.3427L131.063 47.1052L124.342 42.7941C124.068 42.6186 123.966 42.3313 124.036 41.9321L125.12 35.7869C125.212 35.2617 125.521 34.9527 126.046 34.8601L135.091 33.2653C135.49 33.1949 135.787 33.2444 135.981 33.4138L142.096 39.0836C142.362 39.3012 142.464 39.5885 142.402 39.9457L140.684 49.6835C140.614 50.0826 140.374 50.4608 139.965 50.8179L130.147 60.091C129.875 60.3629 129.519 60.5377 129.078 60.6155L122.208 61.8268ZM119.314 76.5048C118.789 76.5974 118.576 76.3601 118.676 75.7929L120.443 65.7715C120.543 65.2042 120.856 64.8743 121.381 64.7817L131.466 63.0035C131.991 62.9109 132.203 63.1482 132.103 63.7155L130.336 73.7369C130.236 74.3041 129.924 74.6341 129.399 74.7267L119.314 76.5048ZM145.804 72.0782C145.468 72.1374 145.202 72.1436 145.007 72.0966C144.833 72.0459 144.71 71.9353 144.638 71.7647L142.062 66.1121C141.892 65.6943 141.827 65.3699 141.868 65.1388C141.927 64.8026 142.118 64.4128 142.44 63.9691L155.325 46.308L155.664 44.3856L145.422 46.1916C144.897 46.2842 144.681 46.0679 144.773 45.5427L145.885 39.2399C145.977 38.7147 146.286 38.4057 146.811 38.3131L162.316 35.5792C162.652 35.5199 162.908 35.5157 163.082 35.5663C163.277 35.6133 163.411 35.7221 163.482 35.8927L166.027 41.5509C166.102 41.7004 166.155 41.8642 166.184 42.0421C166.235 42.2164 166.244 42.3981 166.21 42.5872C166.147 42.9443 165.916 43.3923 165.515 43.9311L152.595 61.4458L152.267 63.3051L162.667 61.4713C163.192 61.3787 163.408 61.595 163.316 62.1203L162.204 68.423C162.112 68.9483 161.803 69.2572 161.278 69.3498L145.804 72.0782ZM169.871 67.8346C169.534 67.8939 169.269 67.9001 169.073 67.8531C168.899 67.8024 168.776 67.6917 168.704 67.5212L166.129 61.8685C165.958 61.4508 165.893 61.1264 165.934 60.8953C165.993 60.5591 166.184 60.1692 166.507 59.7256L179.392 42.0645L179.731 40.1421L169.489 41.9481C168.963 42.0407 168.747 41.8244 168.84 41.2991L169.951 34.9964C170.044 34.4711 170.352 34.1622 170.878 34.0696L186.383 31.3357C186.719 31.2764 186.974 31.2721 187.148 31.3228C187.343 31.3698 187.477 31.4786 187.549 31.6491L190.093 37.3073C190.168 37.4569 190.221 37.6206 190.251 37.7986C190.301 37.9729 190.31 38.1546 190.277 38.3436C190.214 38.7008 189.982 39.1488 189.582 39.6875L176.661 57.2022L176.333 59.0615L186.733 57.2278C187.258 57.1352 187.475 57.3515 187.382 57.8767L186.271 64.1795C186.178 64.7047 185.869 65.0137 185.344 65.1063L169.871 67.8346ZM191.29 64.0579C190.764 64.1505 190.548 63.9342 190.641 63.409L197.77 22.9767C197.863 22.4515 198.172 22.1425 198.697 22.0499L207.111 20.5663C207.636 20.4737 207.852 20.69 207.76 21.2152L200.631 61.6475C200.538 62.1727 200.229 62.4816 199.704 62.5742L191.29 64.0579ZM221.555 58.7212C221.345 58.7583 221.12 58.7675 220.879 58.7489C220.659 58.7267 220.447 58.713 220.245 58.7081L214.88 58.3106L208.829 57.3012C208.235 57.2022 208.028 56.6485 208.206 55.6401L211.901 34.6834C211.99 34.1792 212.242 33.7275 212.659 33.3284L220.073 25.9142C220.493 25.4941 220.945 25.2414 221.428 25.1562L231.512 23.3781C231.996 23.2929 232.384 23.3974 232.678 23.6915L237.87 28.883C238.168 29.1561 238.272 29.5448 238.183 30.0491L235.905 42.9697L218.982 45.9537L218.022 50.1839L222.236 50.876L230.172 50.0263C230.518 50.0264 230.654 50.2365 230.58 50.6567L229.541 56.5498C229.448 57.075 229.14 57.3839 228.614 57.4765L221.555 58.7212ZM223.573 40.3503L224.172 40.2448C225.201 40.0632 226.089 39.5301 226.836 38.6453C227.603 37.7568 228.103 36.6508 228.337 35.3272L228.448 34.697C228.677 33.3944 228.546 32.41 228.053 31.7438C227.58 31.0739 226.829 30.8297 225.8 31.0112L225.17 31.1223C224.161 31.3002 223.284 31.8314 222.538 32.7162C221.812 33.5973 221.335 34.6891 221.105 35.9917L220.994 36.622C220.761 37.9455 220.869 38.9441 221.321 39.6178C221.793 40.2877 222.544 40.5319 223.573 40.3503Z"/>
</mask>
<path d="M57.6591 87.6205C57.1549 87.7095 56.7662 87.605 56.493 87.3071L51.3016 82.1157C51.0037 81.8425 50.8992 81.4538 50.9881 80.9496L55.5446 55.1082C55.6298 54.625 55.8825 54.1733 56.3026 53.7532L63.7168 46.3391C64.1122 45.9437 64.562 45.7015 65.0662 45.6126L77.7663 43.3732C78.2495 43.288 78.6401 43.382 78.9379 43.6552L84.1294 48.8466C84.4236 49.1408 84.528 49.5295 84.4428 50.0127L79.8863 75.854C79.7974 76.3583 79.5447 76.8099 79.1283 77.2091L71.7142 84.6232C71.2941 85.0433 70.8424 85.296 70.3592 85.3812L57.6591 87.6205ZM60.0716 92.2943C59.5463 92.387 59.33 92.1706 59.4226 91.6454L60.2117 87.1705L68.2477 85.7535L68.9231 89.5428C68.9726 89.8394 68.87 90.1323 68.6155 90.4214C68.3819 90.7069 68.1076 90.8774 67.7925 90.9329L60.0716 92.2943ZM63.271 78.4784L67.683 77.7005C68.5654 77.5449 69.1103 76.8788 69.3177 75.7023L73.1352 54.0523C73.3464 52.8548 73.0108 52.3338 72.1284 52.4894L67.7164 53.2673C66.8551 53.4192 66.3188 54.0939 66.1076 55.2915L62.2902 76.9415C62.0827 78.118 62.4097 78.6303 63.271 78.4784ZM94.097 81.1956C93.5927 81.2845 93.2041 81.18 92.9309 80.8821L87.7395 75.6907C87.4416 75.4175 87.3371 75.0288 87.426 74.5246L91.9714 48.7463C92.064 48.221 92.3729 47.9121 92.8982 47.8195L101.312 46.3358C101.838 46.2432 102.054 46.4595 101.961 46.9848L97.6382 71.5025C97.464 72.49 97.8602 72.8985 98.8266 72.7281L103.144 71.9668L107.728 45.9679C107.821 45.4427 108.13 45.1337 108.655 45.0411L117.069 43.5575C117.595 43.4649 117.811 43.6812 117.718 44.2064L111.884 77.2959C111.791 77.8212 111.482 78.1301 110.957 78.2227L94.097 81.1956ZM122.208 61.8268C121.682 61.9195 121.466 61.7031 121.559 61.1779L122.531 55.663C122.572 55.4319 122.654 55.2546 122.778 55.131C122.905 54.9864 123.064 54.8363 123.254 54.6806L130.668 49.3427L131.063 47.1052L124.342 42.7941C124.068 42.6186 123.966 42.3313 124.036 41.9321L125.12 35.7869C125.212 35.2617 125.521 34.9527 126.046 34.8601L135.091 33.2653C135.49 33.1949 135.787 33.2444 135.981 33.4138L142.096 39.0836C142.362 39.3012 142.464 39.5885 142.402 39.9457L140.684 49.6835C140.614 50.0826 140.374 50.4608 139.965 50.8179L130.147 60.091C129.875 60.3629 129.519 60.5377 129.078 60.6155L122.208 61.8268ZM119.314 76.5048C118.789 76.5974 118.576 76.3601 118.676 75.7929L120.443 65.7715C120.543 65.2042 120.856 64.8743 121.381 64.7817L131.466 63.0035C131.991 62.9109 132.203 63.1482 132.103 63.7155L130.336 73.7369C130.236 74.3041 129.924 74.6341 129.399 74.7267L119.314 76.5048ZM145.804 72.0782C145.468 72.1374 145.202 72.1436 145.007 72.0966C144.833 72.0459 144.71 71.9353 144.638 71.7647L142.062 66.1121C141.892 65.6943 141.827 65.3699 141.868 65.1388C141.927 64.8026 142.118 64.4128 142.44 63.9691L155.325 46.308L155.664 44.3856L145.422 46.1916C144.897 46.2842 144.681 46.0679 144.773 45.5427L145.885 39.2399C145.977 38.7147 146.286 38.4057 146.811 38.3131L162.316 35.5792C162.652 35.5199 162.908 35.5157 163.082 35.5663C163.277 35.6133 163.411 35.7221 163.482 35.8927L166.027 41.5509C166.102 41.7004 166.155 41.8642 166.184 42.0421C166.235 42.2164 166.244 42.3981 166.21 42.5872C166.147 42.9443 165.916 43.3923 165.515 43.9311L152.595 61.4458L152.267 63.3051L162.667 61.4713C163.192 61.3787 163.408 61.595 163.316 62.1203L162.204 68.423C162.112 68.9483 161.803 69.2572 161.278 69.3498L145.804 72.0782ZM169.871 67.8346C169.534 67.8939 169.269 67.9001 169.073 67.8531C168.899 67.8024 168.776 67.6917 168.704 67.5212L166.129 61.8685C165.958 61.4508 165.893 61.1264 165.934 60.8953C165.993 60.5591 166.184 60.1692 166.507 59.7256L179.392 42.0645L179.731 40.1421L169.489 41.9481C168.963 42.0407 168.747 41.8244 168.84 41.2991L169.951 34.9964C170.044 34.4711 170.352 34.1622 170.878 34.0696L186.383 31.3357C186.719 31.2764 186.974 31.2721 187.148 31.3228C187.343 31.3698 187.477 31.4786 187.549 31.6491L190.093 37.3073C190.168 37.4569 190.221 37.6206 190.251 37.7986C190.301 37.9729 190.31 38.1546 190.277 38.3436C190.214 38.7008 189.982 39.1488 189.582 39.6875L176.661 57.2022L176.333 59.0615L186.733 57.2278C187.258 57.1352 187.475 57.3515 187.382 57.8767L186.271 64.1795C186.178 64.7047 185.869 65.0137 185.344 65.1063L169.871 67.8346ZM191.29 64.0579C190.764 64.1505 190.548 63.9342 190.641 63.409L197.77 22.9767C197.863 22.4515 198.172 22.1425 198.697 22.0499L207.111 20.5663C207.636 20.4737 207.852 20.69 207.76 21.2152L200.631 61.6475C200.538 62.1727 200.229 62.4816 199.704 62.5742L191.29 64.0579ZM221.555 58.7212C221.345 58.7583 221.12 58.7675 220.879 58.7489C220.659 58.7267 220.447 58.713 220.245 58.7081L214.88 58.3106L208.829 57.3012C208.235 57.2022 208.028 56.6485 208.206 55.6401L211.901 34.6834C211.99 34.1792 212.242 33.7275 212.659 33.3284L220.073 25.9142C220.493 25.4941 220.945 25.2414 221.428 25.1562L231.512 23.3781C231.996 23.2929 232.384 23.3974 232.678 23.6915L237.87 28.883C238.168 29.1561 238.272 29.5448 238.183 30.0491L235.905 42.9697L218.982 45.9537L218.022 50.1839L222.236 50.876L230.172 50.0263C230.518 50.0264 230.654 50.2365 230.58 50.6567L229.541 56.5498C229.448 57.075 229.14 57.3839 228.614 57.4765L221.555 58.7212ZM223.573 40.3503L224.172 40.2448C225.201 40.0632 226.089 39.5301 226.836 38.6453C227.603 37.7568 228.103 36.6508 228.337 35.3272L228.448 34.697C228.677 33.3944 228.546 32.41 228.053 31.7438C227.58 31.0739 226.829 30.8297 225.8 31.0112L225.17 31.1223C224.161 31.3002 223.284 31.8314 222.538 32.7162C221.812 33.5973 221.335 34.6891 221.105 35.9917L220.994 36.622C220.761 37.9455 220.869 38.9441 221.321 39.6178C221.793 40.2877 222.544 40.5319 223.573 40.3503Z" fill="#FF9F1C"/>
<path d="M56.493 87.3071L57.3291 86.5057L57.3208 86.4966L57.3121 86.4879L56.493 87.3071ZM51.3016 82.1157L52.1207 81.2965L52.112 81.2878L52.103 81.2795L51.3016 82.1157ZM56.3026 53.7532L55.7291 53.1796L55.7291 53.1796L56.3026 53.7532ZM63.7168 46.3391L64.2903 46.9127L64.2903 46.9127L63.7168 46.3391ZM78.9379 43.6552L79.7571 42.836L79.7484 42.8273L79.7394 42.819L78.9379 43.6552ZM84.1294 48.8466L84.9485 48.0274L84.9485 48.0274L84.1294 48.8466ZM79.1283 77.2091L78.5798 76.6109L78.5671 76.6231L78.5547 76.6355L79.1283 77.2091ZM71.7142 84.6232L72.2878 85.1968L72.2878 85.1968L71.7142 84.6232ZM60.2117 87.1705L60.3854 86.1856L59.4005 86.3593L59.2269 87.3441L60.2117 87.1705ZM68.2477 85.7535L69.2355 85.2691L69.1242 84.6447L68.4214 84.7687L68.2477 85.7535ZM68.9231 89.5428L69.9123 89.0666L69.9109 89.0584L68.9231 89.5428ZM68.6155 90.4214L67.9701 89.9244L67.9505 89.9466L67.9318 89.9694L68.6155 90.4214ZM57.8327 86.6357C57.5914 86.6783 57.4463 86.6335 57.3291 86.5057L55.6568 88.1085C56.086 88.5764 56.7183 88.7406 57.4854 88.6054L57.8327 86.6357ZM57.3121 86.4879L52.1207 81.2965L50.4824 82.9348L55.6738 88.1262L57.3121 86.4879ZM52.103 81.2795C51.9752 81.1623 51.9304 81.0172 51.9729 80.7759L50.0033 81.1232C49.868 81.8904 50.0322 82.5227 50.5002 82.9518L52.103 81.2795ZM51.9729 80.7759L56.5294 54.9346L54.5598 55.2819L50.0033 81.1232L51.9729 80.7759ZM56.5294 54.9346C56.5663 54.7254 56.6624 54.5406 56.8762 54.3268L55.7291 53.1796C55.1026 53.806 54.6934 54.5246 54.5598 55.2819L56.5294 54.9346ZM56.8762 54.3268L64.2903 46.9127L63.1432 45.7655L55.7291 53.1796L56.8762 54.3268ZM64.2903 46.9127C64.4543 46.7487 64.632 46.6433 64.8926 46.5974L65.2399 44.6278C64.492 44.7596 63.7701 45.1386 63.1432 45.7655L64.2903 46.9127ZM64.8926 46.5974L77.5927 44.358L77.9399 42.3884L65.2399 44.6278L64.8926 46.5974ZM77.5927 44.358C77.8208 44.3178 77.9885 44.3555 78.1365 44.4913L79.7394 42.819C79.2916 42.4085 78.6782 42.2582 77.9399 42.3884L77.5927 44.358ZM78.1188 44.4743L83.3102 49.6657L84.9485 48.0274L79.7571 42.836L78.1188 44.4743ZM83.3102 49.6657C83.46 49.8155 83.4949 49.9772 83.458 50.1863L85.4276 49.839C85.5612 49.0817 85.3872 48.4661 84.9485 48.0274L83.3102 49.6657ZM83.458 50.1863L78.9015 76.0277L80.8711 75.6804L85.4276 49.839L83.458 50.1863ZM78.9015 76.0277C78.859 76.269 78.7585 76.4397 78.5798 76.6109L79.6768 77.8072C80.331 77.1802 80.7358 76.4475 80.8711 75.6804L78.9015 76.0277ZM78.5547 76.6355L71.1406 84.0496L72.2878 85.1968L79.7019 77.7826L78.5547 76.6355ZM71.1406 84.0496C70.9268 84.2634 70.7419 84.3595 70.5328 84.3964L70.1855 86.366C70.9428 86.2325 71.6613 85.8232 72.2878 85.1968L71.1406 84.0496ZM70.5328 84.3964L57.8327 86.6357L57.4854 88.6054L70.1855 86.366L70.5328 84.3964ZM60.2452 91.3095C60.1344 91.3291 60.237 91.2848 60.3346 91.3824C60.4322 91.48 60.3879 91.5826 60.4075 91.4718L58.4378 91.8191C58.3648 92.2335 58.3823 92.7068 58.6963 93.0207C59.0102 93.3347 59.4835 93.3522 59.8979 93.2792L60.2452 91.3095ZM60.4075 91.4718L61.1965 86.9968L59.2269 87.3441L58.4378 91.8191L60.4075 91.4718ZM60.0381 88.1553L68.0741 86.7383L68.4214 84.7687L60.3854 86.1856L60.0381 88.1553ZM67.26 86.2378L67.9353 90.0271L69.9109 89.0584L69.2355 85.2691L67.26 86.2378ZM67.9339 90.0189C67.936 90.0315 67.9346 90.0328 67.9355 90.0236C67.9364 90.0137 67.9393 89.9971 67.9466 89.9763C67.9539 89.9554 67.9629 89.938 67.97 89.9263C67.9768 89.9152 67.9788 89.9144 67.9701 89.9244L69.2609 90.9185C69.7839 90.3243 70.0118 89.6632 69.9123 89.0666L67.9339 90.0189ZM67.9318 89.9694C67.9222 89.9812 67.9193 89.9832 67.9236 89.9792C67.9283 89.975 67.9373 89.9678 67.9495 89.9602C67.9616 89.9526 67.9716 89.9481 67.9771 89.946C67.9821 89.9441 67.9791 89.9459 67.9661 89.9481L67.6188 91.9178C68.2439 91.8075 68.8359 91.4396 69.2991 90.8734L67.9318 89.9694ZM67.9661 89.9481L60.2452 91.3095L59.8979 93.2792L67.6188 91.9178L67.9661 89.9481ZM63.0974 79.4632L67.5093 78.6853L67.8566 76.7157L63.4447 77.4936L63.0974 79.4632ZM67.5093 78.6853C68.1908 78.5651 68.8878 78.2076 69.4371 77.5362C69.9371 76.9251 70.1821 76.2116 70.3026 75.5287L68.3329 75.876C68.2459 76.3695 68.1148 76.5773 68.0698 76.6323C68.0561 76.649 68.0504 76.6528 68.0402 76.6587C68.0239 76.6681 67.9689 76.6959 67.8566 76.7157L67.5093 78.6853ZM70.3026 75.5287L74.12 53.8787L72.1504 54.2259L68.3329 75.876L70.3026 75.5287ZM74.12 53.8787C74.2418 53.1879 74.2426 52.5127 73.9377 52.0394C73.6014 51.5173 72.9901 51.3833 72.302 51.5046L71.9547 53.4742C72.0648 53.4548 72.1111 53.4647 72.1235 53.4684C72.1309 53.4706 72.1363 53.4723 72.1461 53.4874C72.1768 53.5351 72.2398 53.7192 72.1504 54.2259L74.12 53.8787ZM72.302 51.5046L67.8901 52.2825L67.5428 54.2521L71.9547 53.4742L72.302 51.5046ZM67.8901 52.2825C67.2033 52.4036 66.5096 52.7745 65.9701 53.4532C65.4844 54.0643 65.244 54.7779 65.1228 55.4651L67.0924 55.1178C67.1824 54.6075 67.3157 54.385 67.3663 54.3214C67.3818 54.3019 67.3856 54.3012 67.3879 54.2998C67.3959 54.295 67.441 54.2701 67.5428 54.2521L67.8901 52.2825ZM65.1228 55.4651L61.3053 77.1151L63.275 76.7678L67.0924 55.1178L65.1228 55.4651ZM61.3053 77.1151C61.1856 77.7944 61.1834 78.4612 61.4826 78.93C61.8136 79.4486 62.4174 79.5831 63.0974 79.4632L63.4447 77.4936C63.3407 77.512 63.2996 77.5021 63.2913 77.4996C63.2881 77.4986 63.2851 77.499 63.277 77.4862C63.2492 77.4427 63.1873 77.265 63.275 76.7678L61.3053 77.1151ZM92.9309 80.8821L93.767 80.0807L93.7587 80.0716L93.75 80.0629L92.9309 80.8821ZM87.7395 75.6907L88.5586 74.8715L88.5499 74.8628L88.5409 74.8545L87.7395 75.6907ZM103.144 71.9668L102.97 72.9516L103.955 72.778L104.129 71.7932L103.144 71.9668ZM94.2706 80.2108C94.0293 80.2533 93.8842 80.2085 93.767 80.0807L92.0947 81.6835C92.5239 82.1515 93.1562 82.3156 93.9233 82.1804L94.2706 80.2108ZM93.75 80.0629L88.5586 74.8715L86.9203 76.5098L92.1117 81.7013L93.75 80.0629ZM88.5409 74.8545C88.4131 74.7373 88.3683 74.5922 88.4108 74.3509L86.4412 74.6982C86.3059 75.4654 86.4701 76.0977 86.9381 76.5268L88.5409 74.8545ZM88.4108 74.3509L92.9562 48.5726L90.9866 48.9199L86.4412 74.6982L88.4108 74.3509ZM92.9562 48.5726C92.9758 48.4618 92.9856 48.5548 92.8461 48.6942C92.7067 48.8336 92.6137 48.8238 92.7245 48.8043L93.0718 46.8347C92.6574 46.9078 92.1473 47.0987 91.699 47.5471C91.2506 47.9954 91.0597 48.5055 90.9866 48.9199L92.9562 48.5726ZM92.7245 48.8043L101.139 47.3207L101.486 45.351L93.0718 46.8347L92.7245 48.8043ZM101.139 47.3207C101.25 47.3011 101.147 47.3454 101.049 47.2478C100.952 47.1502 100.996 47.0476 100.976 47.1584L102.946 46.8111C103.019 46.3967 103.002 45.9234 102.688 45.6095C102.374 45.2955 101.9 45.278 101.486 45.351L101.139 47.3207ZM100.976 47.1584L96.6533 71.6762L98.623 71.3289L102.946 46.8111L100.976 47.1584ZM96.6533 71.6762C96.5405 72.3165 96.5803 72.9509 96.9794 73.3624C97.3816 73.7772 98.0125 73.8258 98.653 73.7129L99.0003 71.7433C98.8396 71.7716 98.7434 71.7684 98.6906 71.7591C98.6425 71.7507 98.6313 71.7379 98.63 71.7366C98.6283 71.7348 98.6135 71.7203 98.6046 71.664C98.595 71.6035 98.5931 71.4984 98.623 71.3289L96.6533 71.6762ZM98.653 73.7129L102.97 72.9516L103.318 70.982L99.0003 71.7433L98.653 73.7129ZM104.129 71.7932L108.713 45.7942L106.744 46.1415L102.159 72.1405L104.129 71.7932ZM108.713 45.7942C108.733 45.6834 108.742 45.7764 108.603 45.9159C108.464 46.0553 108.371 46.0455 108.481 46.0259L108.829 44.0563C108.414 44.1294 107.904 44.3204 107.456 44.7687C107.008 45.217 106.817 45.7271 106.744 46.1415L108.713 45.7942ZM108.481 46.0259L116.896 44.5423L117.243 42.5727L108.829 44.0563L108.481 46.0259ZM116.896 44.5423C117.006 44.5227 116.904 44.567 116.806 44.4694C116.709 44.3718 116.753 44.2692 116.733 44.3801L118.703 44.0328C118.776 43.6183 118.759 43.145 118.445 42.8311C118.131 42.5172 117.657 42.4996 117.243 42.5727L116.896 44.5423ZM116.733 44.3801L110.899 77.4696L112.868 77.1223L118.703 44.0328L116.733 44.3801ZM110.899 77.4696C110.879 77.5804 110.87 77.4874 111.009 77.348C111.148 77.2086 111.241 77.2184 111.131 77.2379L110.783 79.2075C111.198 79.1344 111.708 78.9435 112.156 78.4951C112.604 78.0468 112.795 77.5367 112.868 77.1223L110.899 77.4696ZM111.131 77.2379L94.2706 80.2108L93.9233 82.1804L110.783 79.2075L111.131 77.2379ZM122.778 55.131L123.351 55.7046L123.388 55.6674L123.423 55.628L122.778 55.131ZM123.254 54.6806L122.881 53.9364L122.841 53.9653L122.802 53.9969L123.254 54.6806ZM130.668 49.3427L131.041 50.0869L131.557 49.716L131.653 49.1691L130.668 49.3427ZM131.063 47.1052L132.048 46.9316L132.136 46.4331L131.786 46.2088L131.063 47.1052ZM124.342 42.7941L125.065 41.8977L125.065 41.8973L124.342 42.7941ZM135.981 33.4138L136.785 32.5797L136.778 32.5739L136.772 32.5683L135.981 33.4138ZM142.096 39.0836L141.292 39.9176L141.305 39.93L141.319 39.9415L142.096 39.0836ZM139.965 50.8179L139.473 50.1681L139.449 50.1892L139.426 50.2114L139.965 50.8179ZM130.147 60.091L129.607 59.4845L129.59 59.5007L129.574 59.5174L130.147 60.091ZM122.381 60.842C122.27 60.8616 122.373 60.8173 122.471 60.9149C122.568 61.0125 122.524 61.1151 122.543 61.0043L120.574 61.3516C120.501 61.766 120.518 62.2393 120.832 62.5532C121.146 62.8671 121.619 62.8847 122.034 62.8116L122.381 60.842ZM122.543 61.0043L123.516 55.4893L121.546 55.8366L120.574 61.3516L122.543 61.0043ZM123.516 55.4893C123.524 55.4442 123.529 55.4473 123.511 55.4847C123.492 55.5267 123.444 55.6115 123.351 55.7046L122.204 54.5574C121.769 54.9928 121.608 55.4857 121.546 55.8366L123.516 55.4893ZM123.423 55.628C123.477 55.5665 123.567 55.4782 123.706 55.3642L122.802 53.9969C122.561 54.1943 122.333 54.4063 122.132 54.6339L123.423 55.628ZM123.627 55.4248L131.041 50.0869L130.295 48.5985L122.881 53.9364L123.627 55.4248ZM131.653 49.1691L132.048 46.9316L130.078 47.2789L129.684 49.5164L131.653 49.1691ZM131.786 46.2088L125.065 41.8977L123.619 43.6906L130.34 48.0017L131.786 46.2088ZM125.065 41.8973C125.025 41.872 125.019 41.8539 125.018 41.8512C125.017 41.8479 125.009 41.8256 125.021 41.7584L123.051 42.1057C122.927 42.8107 123.12 43.371 123.62 43.691L125.065 41.8973ZM125.021 41.7584L126.105 35.6132L124.135 35.9605L123.051 42.1057L125.021 41.7584ZM126.105 35.6132C126.124 35.5024 126.134 35.5954 125.994 35.7348C125.855 35.8743 125.762 35.8645 125.873 35.8449L126.22 33.8753C125.806 33.9484 125.296 34.1394 124.847 34.5877C124.399 35.036 124.208 35.5461 124.135 35.9605L126.105 35.6132ZM125.873 35.8449L134.917 34.2501L135.265 32.2805L126.22 33.8753L125.873 35.8449ZM134.917 34.2501C135.142 34.2105 135.187 34.2566 135.19 34.2593L136.772 32.5683C136.387 32.2323 135.838 32.1794 135.265 32.2805L134.917 34.2501ZM135.177 34.2478L141.292 39.9176L142.899 38.2496L136.785 32.5797L135.177 34.2478ZM141.319 39.9415C141.437 40.0377 141.421 40.0967 141.417 40.1193L143.386 39.772C143.508 39.0803 143.288 38.5646 142.872 38.2257L141.319 39.9415ZM141.417 40.1193L139.7 49.8571L141.669 49.5098L143.386 39.772L141.417 40.1193ZM139.7 49.8571C139.69 49.9134 139.668 49.9977 139.473 50.1681L140.457 51.4677C141.08 50.9238 141.538 50.2519 141.669 49.5098L139.7 49.8571ZM139.426 50.2114L129.607 59.4845L130.687 60.6975L140.505 51.4243L139.426 50.2114ZM129.574 59.5174C129.573 59.5181 129.561 59.5308 129.52 59.5511C129.474 59.5738 129.388 59.6065 129.251 59.6307L128.904 61.6003C129.512 61.493 130.164 61.221 130.721 60.6646L129.574 59.5174ZM129.251 59.6307L122.381 60.842L122.034 62.8116L128.904 61.6003L129.251 59.6307ZM119.488 75.52C119.442 75.528 119.446 75.5212 119.476 75.527C119.511 75.5339 119.561 75.5544 119.601 75.5998C119.641 75.6439 119.65 75.6876 119.652 75.7001C119.653 75.709 119.649 75.6882 119.661 75.6192L117.691 75.9665C117.618 76.3839 117.625 76.8638 117.92 77.1928C118.226 77.5338 118.706 77.5663 119.14 77.4896L119.488 75.52ZM119.661 75.6192L121.428 65.5978L119.459 65.9451L117.691 75.9665L119.661 75.6192ZM121.428 65.5978C121.44 65.5289 121.453 65.5051 121.448 65.515C121.442 65.529 121.415 65.579 121.357 65.6403C121.298 65.7034 121.237 65.7434 121.197 65.7634C121.163 65.7805 121.162 65.7745 121.208 65.7665L121.555 63.7969C121.12 63.8735 120.597 64.0828 120.148 64.5569C119.715 65.0143 119.532 65.5277 119.459 65.9451L121.428 65.5978ZM121.208 65.7665L131.292 63.9883L131.639 62.0187L121.555 63.7969L121.208 65.7665ZM131.292 63.9883C131.337 63.9803 131.334 63.9872 131.304 63.9813C131.269 63.9745 131.219 63.954 131.178 63.9086C131.139 63.8645 131.129 63.8208 131.128 63.8083C131.126 63.7994 131.131 63.8202 131.119 63.8891L133.088 63.5418C133.162 63.1244 133.154 62.6446 132.86 62.3156C132.554 61.9746 132.074 61.9421 131.639 62.0187L131.292 63.9883ZM131.119 63.8891L129.352 73.9105L131.321 73.5632L133.088 63.5418L131.119 63.8891ZM129.352 73.9105C129.339 73.9795 129.327 74.0032 129.332 73.9933C129.338 73.9794 129.364 73.9294 129.422 73.8681C129.482 73.8049 129.543 73.765 129.582 73.7449C129.616 73.7279 129.618 73.7339 129.572 73.7419L129.225 75.7115C129.66 75.6348 130.182 75.4255 130.632 74.9514C131.065 74.494 131.248 73.9807 131.321 73.5632L129.352 73.9105ZM129.572 73.7419L119.488 75.52L119.14 77.4896L129.225 75.7115L129.572 73.7419ZM145.007 72.0966L144.449 73.067L144.464 73.0716L144.48 73.0755L145.007 72.0966ZM144.638 71.7647L145.583 71.1346L145.58 71.126L145.576 71.1175L144.638 71.7647ZM142.062 66.1121L141.115 66.7361L141.12 66.7478L141.125 66.7592L142.062 66.1121ZM142.44 63.9691L141.702 63.5879L141.7 63.5901L142.44 63.9691ZM155.325 46.308L156.064 46.6893L156.26 46.4206L156.31 46.1343L155.325 46.308ZM155.664 44.3856L156.649 44.212L156.823 43.2272L155.838 43.4008L155.664 44.3856ZM163.082 35.5663L162.523 36.5368L162.539 36.5413L162.555 36.5452L163.082 35.5663ZM163.482 35.8927L162.537 36.5227L162.54 36.5299L162.543 36.537L163.482 35.8927ZM166.027 41.5509L165.088 42.1952L165.093 42.2078L165.099 42.2201L166.027 41.5509ZM166.184 42.0421L165.195 42.5183L165.202 42.5608L165.214 42.6008L166.184 42.0421ZM165.515 43.9311L164.785 43.5385L164.782 43.543L165.515 43.9311ZM152.595 61.4458L151.862 61.0577L151.661 61.3292L151.61 61.6194L152.595 61.4458ZM152.267 63.3051L151.282 63.4787L151.109 64.4635L152.094 64.2899L152.267 63.3051ZM145.978 71.0934C145.712 71.1403 145.582 71.1293 145.534 71.1177L144.48 73.0755C144.823 73.1579 145.224 73.1346 145.631 73.063L145.978 71.0934ZM145.566 71.1261C145.566 71.1261 145.566 71.1263 145.567 71.1267C145.569 71.1272 145.57 71.1278 145.572 71.1287C145.575 71.1306 145.579 71.133 145.582 71.1358C145.585 71.1385 145.586 71.1406 145.587 71.1412C145.587 71.1417 145.586 71.14 145.583 71.1346L143.693 72.3948C143.832 72.7257 144.086 72.9615 144.449 73.067L145.566 71.1261ZM145.576 71.1175L143 65.4649L141.125 66.7592L143.7 72.4119L145.576 71.1175ZM143.01 65.4881C142.935 65.3033 142.892 65.1604 142.871 65.0557C142.848 64.9416 142.861 64.9182 142.852 64.9651L140.883 65.3124C140.794 65.8163 140.943 66.3147 141.115 66.7361L143.01 65.4881ZM142.852 64.9651C142.868 64.876 142.936 64.6846 143.18 64.3482L141.7 63.5901C141.3 64.1409 140.986 64.7293 140.883 65.3124L142.852 64.9651ZM143.179 64.3504L156.064 46.6893L154.587 45.9267L141.702 63.5879L143.179 64.3504ZM156.31 46.1343L156.649 44.212L154.679 44.5593L154.341 46.4816L156.31 46.1343ZM155.838 43.4008L145.596 45.2068L145.249 47.1764L155.491 45.3705L155.838 43.4008ZM145.596 45.2068C145.485 45.2263 145.588 45.182 145.685 45.2797C145.783 45.3773 145.739 45.4798 145.758 45.369L143.789 45.7163C143.715 46.1307 143.733 46.604 144.047 46.918C144.361 47.2319 144.834 47.2495 145.249 47.1764L145.596 45.2068ZM145.758 45.369L146.87 39.0662L144.9 39.4135L143.789 45.7163L145.758 45.369ZM146.87 39.0662C146.889 38.9554 146.899 39.0484 146.759 39.1879C146.62 39.3273 146.527 39.3175 146.638 39.2979L146.985 37.3283C146.571 37.4014 146.061 37.5924 145.612 38.0407C145.164 38.489 144.973 38.9991 144.9 39.4135L146.87 39.0662ZM146.638 39.2979L162.143 36.564L162.49 34.5944L146.985 37.3283L146.638 39.2979ZM162.143 36.564C162.272 36.5413 162.366 36.5325 162.433 36.5314C162.5 36.5303 162.525 36.5373 162.523 36.5368L163.641 34.5959C163.3 34.4968 162.888 34.5242 162.49 34.5944L162.143 36.564ZM162.555 36.5452C162.561 36.5466 162.563 36.5476 162.561 36.547C162.56 36.5463 162.556 36.5445 162.552 36.5411C162.548 36.5377 162.544 36.5337 162.541 36.5297C162.538 36.5258 162.537 36.523 162.537 36.5227L164.428 35.2626C164.277 34.9048 163.99 34.6792 163.609 34.5875L162.555 36.5452ZM162.543 36.537L165.088 42.1952L166.966 40.9066L164.421 35.2484L162.543 36.537ZM165.099 42.2201C165.145 42.3106 165.177 42.4095 165.195 42.5183L167.173 41.566C167.132 41.3189 167.059 41.0903 166.954 40.8817L165.099 42.2201ZM165.214 42.6008C165.234 42.6701 165.232 42.7221 165.226 42.7608L167.195 42.4135C167.255 42.0741 167.236 41.7628 167.155 41.4835L165.214 42.6008ZM165.226 42.7608C165.211 42.8426 165.127 43.0785 164.785 43.5386L166.245 44.3236C166.704 43.7061 167.084 43.0461 167.195 42.4135L165.226 42.7608ZM164.782 43.543L151.862 61.0577L153.328 61.8338L166.249 44.3191L164.782 43.543ZM151.61 61.6194L151.282 63.4787L153.252 63.1314L153.58 61.2721L151.61 61.6194ZM152.094 64.2899L162.493 62.4562L162.84 60.4865L152.441 62.3203L152.094 64.2899ZM162.493 62.4562C162.604 62.4366 162.501 62.4809 162.404 62.3833C162.306 62.2857 162.35 62.1831 162.331 62.2939L164.301 61.9466C164.374 61.5322 164.356 61.0589 164.042 60.745C163.728 60.431 163.255 60.4135 162.84 60.4865L162.493 62.4562ZM162.331 62.2939L161.22 68.5967L163.189 68.2494L164.301 61.9466L162.331 62.2939ZM161.22 68.5967C161.2 68.7075 161.19 68.6145 161.33 68.4751C161.469 68.3357 161.562 68.3455 161.451 68.365L161.104 70.3346C161.518 70.2615 162.028 70.0706 162.477 69.6222C162.925 69.1739 163.116 68.6638 163.189 68.2494L161.22 68.5967ZM161.451 68.365L145.978 71.0934L145.631 73.063L161.104 70.3346L161.451 68.365ZM169.073 67.8531L168.515 68.8235L168.53 68.8281L168.546 68.8319L169.073 67.8531ZM168.704 67.5212L169.65 66.8911L169.646 66.8825L169.642 66.874L168.704 67.5212ZM166.129 61.8685L165.181 62.4926L165.186 62.5043L165.191 62.5157L166.129 61.8685ZM166.507 59.7256L165.768 59.3443L165.767 59.3465L166.507 59.7256ZM179.392 42.0645L180.13 42.4457L180.326 42.177L180.376 41.8908L179.392 42.0645ZM179.731 40.1421L180.715 39.9685L180.889 38.9837L179.904 39.1573L179.731 40.1421ZM187.148 31.3228L186.59 32.2933L186.605 32.2978L186.621 32.3017L187.148 31.3228ZM187.549 31.6491L186.603 32.2792L186.606 32.2864L186.61 32.2935L187.549 31.6491ZM190.093 37.3073L189.154 37.9516L189.16 37.9643L189.166 37.9765L190.093 37.3073ZM190.251 37.7986L189.261 38.2748L189.268 38.3172L189.28 38.3573L190.251 37.7986ZM189.582 39.6875L188.852 39.295L188.848 39.2995L189.582 39.6875ZM176.661 57.2022L175.928 56.8142L175.728 57.0857L175.677 57.3759L176.661 57.2022ZM176.333 59.0615L175.349 59.2352L175.175 60.22L176.16 60.0464L176.333 59.0615ZM170.044 66.8498C169.778 66.8967 169.648 66.8858 169.6 66.8742L168.546 68.8319C168.889 68.9144 169.291 68.8911 169.697 68.8194L170.044 66.8498ZM169.632 66.8826C169.632 66.8826 169.633 66.8828 169.634 66.8832C169.635 66.8836 169.636 66.8843 169.638 66.8852C169.641 66.8871 169.645 66.8895 169.648 66.8922C169.651 66.895 169.652 66.8971 169.653 66.8977C169.653 66.8982 169.652 66.8964 169.65 66.8911L167.759 68.1512C167.898 68.4822 168.152 68.718 168.515 68.8235L169.632 66.8826ZM169.642 66.874L167.066 61.2214L165.191 62.5157L167.767 68.1683L169.642 66.874ZM167.076 61.2445C167.001 61.0598 166.958 60.9169 166.937 60.8122C166.914 60.6981 166.927 60.6747 166.919 60.7216L164.949 61.0689C164.86 61.5728 165.009 62.0711 165.181 62.4926L167.076 61.2445ZM166.919 60.7216C166.934 60.6325 167.002 60.4411 167.246 60.1047L165.767 59.3465C165.366 59.8974 165.052 60.4857 164.949 61.0689L166.919 60.7216ZM167.245 60.1069L180.13 42.4457L178.653 41.6832L165.768 59.3443L167.245 60.1069ZM180.376 41.8908L180.715 39.9685L178.746 40.3158L178.407 42.2381L180.376 41.8908ZM179.904 39.1573L169.662 40.9633L169.315 42.9329L179.557 41.1269L179.904 39.1573ZM169.662 40.9633C169.551 40.9828 169.654 40.9385 169.752 41.0361C169.849 41.1338 169.805 41.2363 169.824 41.1255L167.855 41.4728C167.782 41.8872 167.799 42.3605 168.113 42.6744C168.427 42.9884 168.9 43.0059 169.315 42.9329L169.662 40.9633ZM169.824 41.1255L170.936 34.8227L168.966 35.17L167.855 41.4728L169.824 41.1255ZM170.936 34.8227C170.955 34.7119 170.965 34.8049 170.826 34.9443C170.686 35.0837 170.593 35.0739 170.704 35.0544L171.051 33.0848C170.637 33.1579 170.127 33.3488 169.679 33.7972C169.23 34.2455 169.039 34.7556 168.966 35.17L170.936 34.8227ZM170.704 35.0544L186.209 32.3205L186.556 30.3509L171.051 33.0848L170.704 35.0544ZM186.209 32.3205C186.338 32.2978 186.432 32.289 186.499 32.2879C186.567 32.2867 186.591 32.2938 186.59 32.2933L187.707 30.3524C187.366 30.2533 186.954 30.2807 186.556 30.3509L186.209 32.3205ZM186.621 32.3017C186.627 32.3031 186.629 32.3041 186.627 32.3035C186.626 32.3028 186.623 32.301 186.619 32.2976C186.614 32.2942 186.611 32.2902 186.608 32.2862C186.605 32.2822 186.604 32.2795 186.603 32.2792L188.494 31.0191C188.343 30.6612 188.056 30.4356 187.675 30.344L186.621 32.3017ZM186.61 32.2935L189.154 37.9516L191.032 36.663L188.488 31.0048L186.61 32.2935ZM189.166 37.9765C189.211 38.067 189.243 38.1659 189.261 38.2748L191.24 37.3225C191.198 37.0754 191.125 36.8467 191.02 36.6381L189.166 37.9765ZM189.28 38.3573C189.3 38.4265 189.299 38.4785 189.292 38.5173L191.261 38.17C191.321 37.8306 191.302 37.5192 191.221 37.24L189.28 38.3573ZM189.292 38.5173C189.277 38.5991 189.193 38.8349 188.852 39.295L190.312 40.0801C190.77 39.4626 191.15 38.8025 191.261 38.17L189.292 38.5173ZM188.848 39.2995L175.928 56.8142L177.395 57.5903L190.315 40.0756L188.848 39.2995ZM175.677 57.3759L175.349 59.2352L177.318 58.8879L177.646 57.0286L175.677 57.3759ZM176.16 60.0464L186.559 58.2126L186.907 56.243L176.507 58.0767L176.16 60.0464ZM186.559 58.2126C186.67 58.1931 186.568 58.2374 186.47 58.1397C186.372 58.0421 186.417 57.9396 186.397 58.0504L188.367 57.7031C188.44 57.2887 188.422 56.8154 188.108 56.5014C187.794 56.1875 187.321 56.1699 186.907 56.243L186.559 58.2126ZM186.397 58.0504L185.286 64.3532L187.255 64.0059L188.367 57.7031L186.397 58.0504ZM185.286 64.3532C185.266 64.464 185.256 64.371 185.396 64.2316C185.535 64.0921 185.628 64.1019 185.517 64.1215L185.17 66.0911C185.585 66.018 186.095 65.827 186.543 65.3787C186.991 64.9304 187.182 64.4203 187.255 64.0059L185.286 64.3532ZM185.517 64.1215L170.044 66.8498L169.697 68.8194L185.17 66.0911L185.517 64.1215ZM191.463 63.0731C191.352 63.0926 191.455 63.0483 191.553 63.146C191.65 63.2436 191.606 63.3461 191.625 63.2353L189.656 63.5826C189.583 63.997 189.6 64.4703 189.914 64.7843C190.228 65.0982 190.702 65.1158 191.116 65.0427L191.463 63.0731ZM191.625 63.2353L198.755 22.803L196.785 23.1503L189.656 63.5826L191.625 63.2353ZM198.755 22.803C198.774 22.6922 198.784 22.7852 198.645 22.9246C198.505 23.0641 198.412 23.0543 198.523 23.0347L198.87 21.0651C198.456 21.1382 197.946 21.3292 197.498 21.7775C197.049 22.2258 196.858 22.7359 196.785 23.1503L198.755 22.803ZM198.523 23.0347L206.937 21.5511L207.285 19.5815L198.87 21.0651L198.523 23.0347ZM206.937 21.5511C207.048 21.5315 206.946 21.5758 206.848 21.4782C206.75 21.3806 206.795 21.278 206.775 21.3888L208.745 21.0415C208.818 20.6271 208.8 20.1538 208.486 19.8399C208.172 19.526 207.699 19.5084 207.285 19.5815L206.937 21.5511ZM206.775 21.3888L199.646 61.8211L201.615 61.4738L208.745 21.0415L206.775 21.3888ZM199.646 61.8211C199.626 61.9319 199.616 61.8389 199.756 61.6995C199.895 61.5601 199.988 61.5699 199.877 61.5894L199.53 63.559C199.945 63.486 200.455 63.295 200.903 62.8467C201.351 62.3983 201.542 61.8882 201.615 61.4738L199.646 61.8211ZM199.877 61.5894L191.463 63.0731L191.116 65.0427L199.53 63.559L199.877 61.5894ZM220.879 58.7489L220.452 59.7447L220.462 59.7457L220.471 59.7465L220.879 58.7489ZM220.245 58.7081L219.84 59.7058L219.86 59.7073L219.881 59.7078L220.245 58.7081ZM214.88 58.3106L214.403 59.2997L214.438 59.3056L214.475 59.3083L214.88 58.3106ZM208.829 57.3012L208.352 58.2904L208.829 57.3012ZM212.659 33.3284L213.207 33.9265L213.22 33.9143L213.232 33.9019L212.659 33.3284ZM220.073 25.9142L219.499 25.3407L220.073 25.9142ZM232.678 23.6915L233.498 22.8724L232.678 23.6915ZM237.87 28.883L237.051 29.7021L237.059 29.7108L237.068 29.7191L237.87 28.883ZM235.905 42.9697L235.731 43.9545L236.716 43.7809L236.89 42.7961L235.905 42.9697ZM218.982 45.9537L219.156 44.9689L218.221 45.1336L218.008 46.0754L218.982 45.9537ZM218.022 50.1839L217.048 50.3056L216.876 51.0631L217.548 51.1734L218.022 50.1839ZM222.236 50.876L221.762 51.8655L221.872 51.8836L221.994 51.8706L222.236 50.876ZM230.172 50.0263L230.514 49.0263L230.465 49.0263L230.415 49.0317L230.172 50.0263ZM226.836 38.6453L226.18 38.16L226.174 38.1672L226.168 38.1745L226.836 38.6453ZM228.053 31.7438L227.17 32.488L227.174 32.4935L227.178 32.4989L228.053 31.7438ZM222.538 32.7162L221.87 32.2454L221.863 32.2529L221.857 32.2604L222.538 32.7162ZM221.321 39.6177L220.431 40.3505L220.434 40.3563L220.438 40.3619L221.321 39.6177ZM221.729 57.7364C221.616 57.7564 221.469 57.7655 221.286 57.7514L220.471 59.7465C220.77 59.7695 221.075 59.7602 221.382 59.706L221.729 57.7364ZM221.305 57.7531C221.067 57.729 220.834 57.7139 220.608 57.7083L219.881 59.7078C220.06 59.7122 220.25 59.7243 220.452 59.7447L221.305 57.7531ZM220.649 57.7104L215.285 57.3129L214.475 59.3083L219.84 59.7058L220.649 57.7104ZM215.356 57.3214L209.305 56.312L208.352 58.2904L214.403 59.2997L215.356 57.3214ZM209.305 56.312C209.245 56.3021 209.211 56.2823 209.182 56.205C209.143 56.1009 209.117 55.8817 209.19 55.4664L207.221 55.8137C207.116 56.4069 207.105 56.9688 207.273 57.4184C207.452 57.8948 207.819 58.2013 208.352 58.2904L209.305 56.312ZM209.19 55.4664L212.886 34.5097L210.916 34.857L207.221 55.8137L209.19 55.4664ZM212.886 34.5097C212.928 34.2684 213.029 34.0977 213.207 33.9265L212.11 32.7302C211.456 33.3572 211.051 34.0899 210.916 34.857L212.886 34.5097ZM213.232 33.9019L220.646 26.4878L219.499 25.3407L212.085 32.7548L213.232 33.9019ZM220.646 26.4878C220.86 26.274 221.045 26.1779 221.254 26.141L221.602 24.1714C220.844 24.305 220.126 24.7142 219.499 25.3407L220.646 26.4878ZM221.254 26.141L231.339 24.3629L231.686 22.3933L221.602 24.1714L221.254 26.141ZM231.339 24.3629C231.548 24.326 231.71 24.361 231.859 24.5107L233.498 22.8724C233.059 22.4338 232.443 22.2597 231.686 22.3933L231.339 24.3629ZM231.859 24.5107L237.051 29.7021L238.689 28.0638L233.498 22.8724L231.859 24.5107ZM237.068 29.7191C237.196 29.8363 237.241 29.9814 237.198 30.2227L239.168 29.8754C239.303 29.1083 239.139 28.476 238.671 28.0468L237.068 29.7191ZM237.198 30.2227L234.92 43.1434L236.89 42.7961L239.168 29.8754L237.198 30.2227ZM236.079 41.9849L219.156 44.9689L218.808 46.9385L235.731 43.9545L236.079 41.9849ZM218.008 46.0754L217.048 50.3056L218.997 50.0623L219.956 45.8321L218.008 46.0754ZM217.548 51.1734L221.762 51.8655L222.711 49.8865L218.497 49.1945L217.548 51.1734ZM221.994 51.8706L229.93 51.0209L230.415 49.0317L222.479 49.8815L221.994 51.8706ZM229.83 51.0263C229.828 51.0263 229.797 51.0259 229.755 51.0077C229.71 50.9883 229.668 50.9551 229.639 50.909C229.58 50.8182 229.61 50.7491 229.595 50.8303L231.565 50.483C231.625 50.1441 231.624 49.7598 231.429 49.4589C231.224 49.1421 230.875 49.0264 230.514 49.0263L229.83 51.0263ZM229.595 50.8303L228.556 56.7234L230.526 56.3761L231.565 50.483L229.595 50.8303ZM228.556 56.7234C228.537 56.8342 228.527 56.7412 228.666 56.6018C228.806 56.4624 228.899 56.4722 228.788 56.4917L228.441 58.4613C228.855 58.3883 229.365 58.1973 229.814 57.749C230.262 57.3006 230.453 56.7905 230.526 56.3761L228.556 56.7234ZM228.788 56.4917L221.729 57.7364L221.382 59.706L228.441 58.4613L228.788 56.4917ZM223.399 41.3351L223.998 41.2296L224.346 39.26L223.747 39.3655L223.399 41.3351ZM223.998 41.2296C225.315 40.9973 226.518 40.2851 227.504 39.1162L226.168 38.1745C225.661 38.7751 225.087 39.1292 224.346 39.26L223.998 41.2296ZM227.491 39.1307C228.481 37.9851 229.061 36.6297 229.321 35.1536L227.352 35.5009C227.145 36.6719 226.725 37.5286 226.18 38.16L227.491 39.1307ZM229.321 35.1536L229.433 34.5233L227.463 34.8706L227.352 35.5009L229.321 35.1536ZM229.433 34.5233C229.69 33.0638 229.561 31.8454 228.927 30.9887L227.178 32.4989C227.53 32.9746 227.665 33.725 227.463 34.8706L229.433 34.5233ZM228.935 30.9996C228.311 30.1146 227.291 29.7941 225.974 30.0264L225.626 31.996C226.368 31.8652 226.85 32.0332 227.17 32.488L228.935 30.9996ZM225.974 30.0264L225.343 30.1375L224.996 32.1071L225.626 31.996L225.974 30.0264ZM225.343 30.1375C224.04 30.3674 222.85 31.0829 221.87 32.2454L223.206 33.1871C223.718 32.58 224.283 32.2329 224.996 32.1071L225.343 30.1375ZM221.857 32.2604C220.926 33.3914 220.375 34.7199 220.12 36.1653L222.09 35.818C222.294 34.6583 222.699 33.8031 223.218 33.172L221.857 32.2604ZM220.12 36.1653L220.009 36.7956L221.979 36.4483L222.09 35.818L220.12 36.1653ZM220.009 36.7956C219.751 38.2579 219.85 39.4836 220.431 40.3505L222.211 38.885C221.889 38.4046 221.77 37.6332 221.979 36.4483L220.009 36.7956ZM220.438 40.3619C221.062 41.247 222.082 41.5674 223.399 41.3351L223.747 39.3655C223.005 39.4963 222.523 39.3283 222.203 38.8736L220.438 40.3619Z" fill="#FF9F1C" mask="url(#path-2-outside-1_109_3)"/>
</g>
<defs>
<clipPath id="clip0_109_3">
<rect width="290" height="115" fill="white"/>
</clipPath>
</defs>
</svg>
